<svg width="159" height="75" viewBox="0 0 823 401" fill="none" xmlns="http://www.w3.org/2000/svg">
<path d="M419.735 119.52V186H402.815V177.6C400.655 180.48 397.815 182.76 394.295 184.44C390.855 186.04 387.095 186.84 383.015 186.84C377.815 186.84 373.215 185.76 369.215 183.6C365.215 181.36 362.055 178.12 359.735 173.88C357.495 169.56 356.375 164.44 356.375 158.52V119.52H373.175V156.12C373.175 161.4 374.495 165.48 377.135 168.36C379.775 171.16 383.375 172.56 387.935 172.56C392.575 172.56 396.215 171.16 398.855 168.36C401.495 165.48 402.815 161.4 402.815 156.12V119.52H419.735ZM453.111 129.84C455.271 126.32 458.071 123.56 461.511 121.56C465.031 119.56 469.031 118.56 473.511 118.56V136.2H469.071C463.791 136.2 459.791 137.44 457.071 139.92C454.431 142.4 453.111 146.72 453.111 152.88V186H436.311V119.52H453.111V129.84ZM501.627 129.84C503.787 126.32 506.587 123.56 510.027 121.56C513.547 119.56 517.547 118.56 522.027 118.56V136.2H517.587C512.307 136.2 508.307 137.44 505.587 139.92C502.947 142.4 501.627 146.72 501.627 152.88V186H484.827V119.52H501.627V129.84ZM595.143 151.32C595.143 153.72 594.983 155.88 594.663 157.8H546.063C546.463 162.6 548.143 166.36 551.103 169.08C554.063 171.8 557.703 173.16 562.023 173.16C568.263 173.16 572.703 170.48 575.343 165.12H593.463C591.543 171.52 587.863 176.8 582.423 180.96C576.983 185.04 570.303 187.08 562.383 187.08C555.983 187.08 550.223 185.68 545.103 182.88C540.063 180 536.103 175.96 533.223 170.76C530.423 165.56 529.022 159.56 529.022 152.76C529.022 145.88 530.423 139.84 533.223 134.64C536.023 129.44 539.943 125.44 544.983 122.64C550.023 119.84 555.823 118.44 562.383 118.44C568.703 118.44 574.343 119.8 579.303 122.52C584.343 125.24 588.223 129.12 590.943 134.16C593.743 139.12 595.143 144.84 595.143 151.32ZM577.743 146.52C577.663 142.2 576.103 138.76 573.063 136.2C570.023 133.56 566.303 132.24 561.903 132.24C557.743 132.24 554.223 133.52 551.343 136.08C548.543 138.56 546.823 142.04 546.183 146.52H577.743ZM644.245 118.56C652.165 118.56 658.565 121.08 663.445 126.12C668.325 131.08 670.765 138.04 670.765 147V186H653.965V149.28C653.965 144 652.645 139.96 650.005 137.16C647.365 134.28 643.765 132.84 639.205 132.84C634.565 132.84 630.885 134.28 628.165 137.16C625.525 139.96 624.205 144 624.205 149.28V186H607.405V119.52H624.205V127.8C626.445 124.92 629.285 122.68 632.725 121.08C636.245 119.4 640.085 118.56 644.245 118.56ZM682.421 152.76C682.421 145.88 683.821 139.88 686.621 134.76C689.421 129.56 693.301 125.56 698.261 122.76C703.221 119.88 708.901 118.44 715.301 118.44C723.541 118.44 730.341 120.52 735.701 124.68C741.141 128.76 744.781 134.52 746.621 141.96H728.501C727.541 139.08 725.901 136.84 723.581 135.24C721.341 133.56 718.541 132.72 715.181 132.72C710.381 132.72 706.581 134.48 703.781 138C700.981 141.44 699.581 146.36 699.581 152.76C699.581 159.08 700.981 164 703.781 167.52C706.581 170.96 710.381 172.68 715.181 172.68C721.981 172.68 726.421 169.64 728.501 163.56H746.621C744.781 170.76 741.141 176.48 735.701 180.72C730.261 184.96 723.461 187.08 715.301 187.08C708.901 187.08 703.221 185.68 698.261 182.88C693.301 180 689.421 176 686.621 170.88C683.821 165.68 682.421 159.64 682.421 152.76ZM822.528 119.52L781.368 217.44H763.488L777.888 184.32L751.248 119.52H770.088L787.248 165.96L804.648 119.52H822.528Z" fill="white"/>
<path d="M90.4844 258C90.4844 230.533 96.6177 206 108.884 184.4C121.418 162.533 138.351 145.6 159.684 133.6C181.284 121.333 205.418 115.2 232.084 115.2C263.284 115.2 290.618 123.2 314.084 139.2C337.551 155.2 353.951 177.333 363.284 205.6H298.884C292.484 192.267 283.418 182.267 271.684 175.6C260.218 168.933 246.884 165.6 231.684 165.6C215.418 165.6 200.884 169.467 188.084 177.2C175.551 184.667 165.684 195.333 158.484 209.2C151.551 223.067 148.084 239.333 148.084 258C148.084 276.4 151.551 292.667 158.484 306.8C165.684 320.667 175.551 331.467 188.084 339.2C200.884 346.667 215.418 350.4 231.684 350.4C246.884 350.4 260.218 347.067 271.684 340.4C283.418 333.467 292.484 323.333 298.884 310H363.284C353.951 338.533 337.551 360.8 314.084 376.8C290.884 392.533 263.551 400.4 232.084 400.4C205.418 400.4 181.284 394.4 159.684 382.4C138.351 370.133 121.418 353.2 108.884 331.6C96.6177 310 90.4844 285.467 90.4844 258Z" fill="white"/>
<path d="M332.113 293.08C325.713 293.08 319.953 291.68 314.833 288.88C309.713 286 305.673 281.96 302.713 276.76C299.833 271.56 298.393 265.56 298.393 258.76C298.393 251.96 299.873 245.96 302.833 240.76C305.873 235.56 309.993 231.56 315.193 228.76C320.393 225.88 326.193 224.44 332.593 224.44C338.993 224.44 344.793 225.88 349.993 228.76C355.193 231.56 359.273 235.56 362.233 240.76C365.273 245.96 366.793 251.96 366.793 258.76C366.793 265.56 365.233 271.56 362.112 276.76C359.073 281.96 354.913 286 349.633 288.88C344.433 291.68 338.593 293.08 332.113 293.08ZM332.113 278.44C335.153 278.44 337.993 277.72 340.633 276.28C343.353 274.76 345.513 272.52 347.113 269.56C348.713 266.6 349.513 263 349.513 258.76C349.513 252.44 347.833 247.6 344.473 244.24C341.193 240.8 337.153 239.08 332.353 239.08C327.553 239.08 323.513 240.8 320.233 244.24C317.033 247.6 315.433 252.44 315.433 258.76C315.433 265.08 316.993 269.96 320.113 273.4C323.313 276.76 327.313 278.44 332.113 278.44ZM415.956 224.56C423.876 224.56 430.276 227.08 435.156 232.12C440.036 237.08 442.476 244.04 442.476 253V292H425.676V255.28C425.676 250 424.356 245.96 421.716 243.16C419.076 240.28 415.476 238.84 410.916 238.84C406.276 238.84 402.596 240.28 399.876 243.16C397.236 245.96 395.916 250 395.916 255.28V292H379.116V225.52H395.916V233.8C398.156 230.92 400.996 228.68 404.436 227.08C407.956 225.4 411.796 224.56 415.956 224.56ZM486.172 276.52L502.972 225.52H520.852L496.252 292H475.852L451.372 225.52H469.372L486.172 276.52ZM592.088 257.32C592.088 259.72 591.928 261.88 591.608 263.8H543.008C543.408 268.6 545.088 272.36 548.048 275.08C551.008 277.8 554.648 279.16 558.968 279.16C565.208 279.16 569.648 276.48 572.288 271.12H590.408C588.488 277.52 584.808 282.8 579.368 286.96C573.928 291.04 567.248 293.08 559.328 293.08C552.928 293.08 547.168 291.68 542.048 288.88C537.008 286 533.048 281.96 530.168 276.76C527.368 271.56 525.968 265.56 525.968 258.76C525.968 251.88 527.368 245.84 530.168 240.64C532.968 235.44 536.888 231.44 541.928 228.64C546.968 225.84 552.768 224.44 559.328 224.44C565.648 224.44 571.288 225.8 576.248 228.52C581.288 231.24 585.168 235.12 587.888 240.16C590.688 245.12 592.088 250.84 592.088 257.32ZM574.688 252.52C574.608 248.2 573.048 244.76 570.008 242.2C566.968 239.56 563.248 238.24 558.848 238.24C554.688 238.24 551.168 239.52 548.288 242.08C545.488 244.56 543.768 248.04 543.128 252.52H574.688ZM621.15 235.84C623.31 232.32 626.11 229.56 629.55 227.56C633.07 225.56 637.07 224.56 641.55 224.56V242.2H637.11C631.83 242.2 627.83 243.44 625.11 245.92C622.47 248.4 621.15 252.72 621.15 258.88V292H604.35V225.52H621.15V235.84ZM672.426 239.32V271.48C672.426 273.72 672.946 275.36 673.986 276.4C675.106 277.36 676.946 277.84 679.506 277.84H687.306V292H676.746C662.586 292 655.506 285.12 655.506 271.36V239.32H647.586V225.52H655.506V209.08H672.426V225.52H687.306V239.32H672.426ZM761.189 257.32C761.189 259.72 761.029 261.88 760.709 263.8H712.109C712.509 268.6 714.189 272.36 717.149 275.08C720.109 277.8 723.749 279.16 728.069 279.16C734.309 279.16 738.749 276.48 741.389 271.12H759.509C757.589 277.52 753.909 282.8 748.469 286.96C743.029 291.04 736.349 293.08 728.429 293.08C722.029 293.08 716.269 291.68 711.149 288.88C706.109 286 702.149 281.96 699.269 276.76C696.469 271.56 695.069 265.56 695.069 258.76C695.069 251.88 696.469 245.84 699.269 240.64C702.069 235.44 705.989 231.44 711.029 228.64C716.069 225.84 721.869 224.44 728.429 224.44C734.749 224.44 740.389 225.8 745.349 228.52C750.389 231.24 754.269 235.12 756.989 240.16C759.789 245.12 761.189 250.84 761.189 257.32ZM743.789 252.52C743.709 248.2 742.149 244.76 739.109 242.2C736.069 239.56 732.349 238.24 727.949 238.24C723.789 238.24 720.269 239.52 717.389 242.08C714.589 244.56 712.869 248.04 712.229 252.52H743.789ZM790.252 235.84C792.412 232.32 795.212 229.56 798.652 227.56C802.172 225.56 806.172 224.56 810.652 224.56V242.2H806.212C800.932 242.2 796.932 243.44 794.212 245.92C791.572 248.4 790.252 252.72 790.252 258.88V292H773.452V225.52H790.252V235.84Z" fill="white"/>
<path d="M0.984375 143C0.984375 115.533 7.11771 91 19.3844 69.4C31.9177 47.5333 48.851 30.6 70.1844 18.6C91.7844 6.33333 115.918 0.199993 142.584 0.199993C173.784 0.199993 201.118 8.19999 224.584 24.2C248.051 40.2 264.451 62.3333 273.784 90.6H209.384C202.984 77.2667 193.918 67.2667 182.184 60.6C170.718 53.9333 157.384 50.6 142.184 50.6C125.918 50.6 111.384 54.4667 98.5844 62.2C86.051 69.6666 76.1844 80.3333 68.9844 94.2C62.051 108.067 58.5844 124.333 58.5844 143C58.5844 161.4 62.051 177.667 68.9844 191.8C76.1844 205.667 86.051 216.467 98.5844 224.2C111.384 231.667 125.918 235.4 142.184 235.4C157.384 235.4 170.718 232.067 182.184 225.4C193.918 218.467 202.984 208.333 209.384 195H273.784C264.451 223.533 248.051 245.8 224.584 261.8C201.384 277.533 174.051 285.4 142.584 285.4C115.918 285.4 91.7844 279.4 70.1844 267.4C48.851 255.133 31.9177 238.2 19.3844 216.6C7.11771 195 0.984375 170.467 0.984375 143Z" fill="white"/>
</svg>
